# xmcd
#
# Track frame offsets: 
#        150
#        21261
#        45518
#        66550
#        87115
#        105150
#        126519
#        146895
#        169154
#        186657
#        211819
#        231168
#        250316
#        287468
#        308406
#
# Disc length: 4390 seconds
#
# Revision: 0
# Processed by: cddbd v1.5.2PL0 Copyright (c) Steve Scherf et al.
# Submitted via: ExactAudioCopy v1.3
#
DISCID=d711240f
DTITLE=Dezi Phillips - Kickin'it +5 (Expanded)
DYEAR=1989
DGENRE=Funk
TTITLE0=Why You Wanna
TTITLE1=I Get The Feeling
TTITLE2=Fine-Fresh
TTITLE3=Watchin' You
TTITLE4=Every-Body Knows
TTITLE5=Didn't Do It
TTITLE6=She's Something
TTITLE7=Love U Forever
TTITLE8=In And Out
TTITLE9=This Ring (Is For You)
TTITLE10=Who's That Girl
TTITLE11=My Kinda Girl
TTITLE12=Why You Wanna (Extended Mix)
TTITLE13=Why You Wanna (Hot Mix)
TTITLE14=Why You Wanna (Near House Mix)
EXTD=
EXTT0=
EXTT1=
EXTT2=
EXTT3=
EXTT4=
EXTT5=
EXTT6=
EXTT7=
EXTT8=
EXTT9=
EXTT10=
EXTT11=
EXTT12=
EXTT13=
EXTT14=
PLAYORDER=
